<svg xmlns="http://www.w3.org/2000/svg" viewBox="0 0 100 120" width="32" height="38">
  <!-- Red Maple - 3-5 lobed with red color -->
  <path d="M 50,115 L 50,70 L 46,72 Q 42,73 38,72 L 33,68 Q 28,62 25,56 L 22,49 Q 20,44 18,40 L 16,35 Q 15,32 15,29 L 17,25 Q 19,22 22,22 L 27,24 Q 31,27 34,32 L 37,38 L 42,35 L 45,30 Q 47,25 48,21 L 49,16 Q 50,11 50,6 L 50,2 L 51,6 Q 51,11 52,16 L 53,21 Q 55,25 57,30 L 60,35 L 65,38 L 68,32 Q 71,27 75,24 L 80,22 Q 83,22 85,25 L 87,29 Q 87,32 86,35 L 84,40 Q 82,44 80,49 L 77,56 Q 74,62 69,68 L 64,72 Q 60,73 56,72 L 50,70 Z" 
        fill="#CD5C5C" stroke="#8B3A3A" stroke-width="1.5"/>
  <!-- Veins -->
  <line x1="50" y1="2" x2="50" y2="115" stroke="#8B3A3A" stroke-width="2"/>
  <line x1="50" y1="40" x2="25" y2="26" stroke="#8B3A3A" stroke-width="1.5"/>
  <line x1="50" y1="40" x2="75" y2="26" stroke="#8B3A3A" stroke-width="1.5"/>
</svg>