<svg xmlns="http://www.w3.org/2000/svg" viewBox="0 0 100 120" width="32" height="38">
  <!-- Red Oak leaf - lighter with moderate lobes -->
  <path d="M 50,115 L 50,95 Q 45,90 38,88 L 35,82 Q 32,78 28,76 L 25,70 Q 22,65 18,62 L 15,55 Q 12,50 10,45 L 8,38 Q 8,32 10,28 L 12,22 Q 15,18 20,16 Q 25,15 30,18 L 32,22 Q 35,26 38,28 L 40,32 Q 42,36 44,38 L 46,42 Q 48,45 50,46 Q 52,45 54,42 L 56,38 Q 58,36 60,32 L 62,28 Q 65,26 68,22 L 70,18 Q 75,15 80,16 Q 85,18 88,22 L 90,28 Q 92,32 92,38 L 90,45 Q 88,50 85,55 L 82,62 Q 78,65 75,70 L 72,76 Q 68,78 65,82 L 62,88 Q 55,90 50,95 Z" 
        fill="#A0522D" stroke="#6B3410" stroke-width="1.5"/>
  <!-- Bristle tips -->
  <line x1="15" y1="55" x2="12" y2="52" stroke="#6B3410" stroke-width="1"/>
  <line x1="8" y1="38" x2="5" y2="35" stroke="#6B3410" stroke-width="1"/>
  <line x1="85" y1="55" x2="88" y2="52" stroke="#6B3410" stroke-width="1"/>
  <line x1="92" y1="38" x2="95" y2="35" stroke="#6B3410" stroke-width="1"/>
</svg>