<svg xmlns="http://www.w3.org/2000/svg" viewBox="0 0 100 120" width="32" height="38">
  <!-- River Birch - diamond-shaped with double serrations -->
  <path d="M 50,115 L 50,48 Q 48,44 46,40 L 43,36 Q 39,32 35,30 L 31,28 Q 26,27 22,28 Q 18,30 15,34 Q 13,38 13,42 Q 13,46 15,50 L 18,54 Q 21,58 24,61 L 28,65 Q 32,68 36,71 L 40,75 Q 44,79 47,84 L 49,90 Q 50,95 50,100 L 50,48 Q 52,44 54,40 L 57,36 Q 61,32 65,30 L 69,28 Q 74,27 78,28 Q 82,30 85,34 Q 87,38 87,42 Q 87,46 85,50 L 82,54 Q 79,58 76,61 L 72,65 Q 68,68 64,71 L 60,75 Q 56,79 53,84 L 51,90 Q 50,95 50,100 Z" 
        fill="#8FBC8F" stroke="#556B2F" stroke-width="1.5"/>
  <!-- Double serrations -->
  <path d="M 22,28 L 24,30 L 23,31 L 26,33 L 25,34 L 28,36 L 27,37" 
        fill="none" stroke="#556B2F" stroke-width="1"/>
  <path d="M 78,28 L 76,30 L 77,31 L 74,33 L 75,34 L 72,36 L 73,37" 
        fill="none" stroke="#556B2F" stroke-width="1"/>
  <line x1="50" y1="48" x2="50" y2="115" stroke="#556B2F" stroke-width="2"/>
</svg>