<svg xmlns="http://www.w3.org/2000/svg" viewBox="0 0 100 120" width="32" height="38">
  <!-- Silver Maple - deeply divided 5-lobed with silvery tint -->
  <path d="M 50,115 L 50,65 L 42,68 Q 35,70 28,68 L 22,62 Q 18,55 15,48 L 12,40 Q 10,35 9,32 L 8,28 Q 8,25 10,22 Q 12,20 15,20 L 20,22 Q 24,25 27,30 L 30,36 L 35,33 L 38,28 Q 40,24 42,20 L 44,15 Q 45,10 47,5 L 50,2 L 53,5 Q 55,10 56,15 L 58,20 Q 60,24 62,28 L 65,33 L 70,36 L 73,30 Q 76,25 80,22 L 85,20 Q 88,20 90,22 Q 92,25 92,28 L 91,32 Q 90,35 88,40 L 85,48 Q 82,55 78,62 L 72,68 Q 65,70 58,68 L 50,65 Z" 
        fill="#C0C0C0" stroke="#808080" stroke-width="1.5"/>
  <!-- Veins -->
  <line x1="50" y1="2" x2="50" y2="115" stroke="#808080" stroke-width="2"/>
  <line x1="50" y1="35" x2="18" y2="20" stroke="#808080" stroke-width="1.5"/>
  <line x1="50" y1="35" x2="82" y2="20" stroke="#808080" stroke-width="1.5"/>
</svg>