<svg xmlns="http://www.w3.org/2000/svg" viewBox="0 0 100 120" width="32" height="38">
  <!-- Sugar Maple - iconic 5-pointed lobes, golden/orange -->
  <path d="M 50,115 L 50,70 L 45,72 Q 40,73 35,72 L 30,68 Q 25,62 22,55 L 18,48 Q 15,42 13,38 L 10,32 Q 8,28 8,25 L 10,20 Q 12,18 15,18 L 20,20 Q 25,23 28,28 L 32,35 L 38,32 L 42,28 Q 44,24 45,20 L 46,15 Q 47,10 48,5 L 50,2 L 52,5 Q 53,10 54,15 L 55,20 Q 56,24 58,28 L 62,32 L 68,35 L 72,28 Q 75,23 80,20 L 85,18 Q 88,18 90,20 L 92,25 Q 92,28 90,32 L 87,38 Q 85,42 82,48 L 78,55 Q 75,62 70,68 L 65,72 Q 60,73 55,72 L 50,70 Z" 
        fill="#FFA500" stroke="#CC8400" stroke-width="1.5"/>
  <!-- Veins -->
  <line x1="50" y1="2" x2="50" y2="115" stroke="#CC8400" stroke-width="2"/>
  <line x1="50" y1="40" x2="20" y2="20" stroke="#CC8400" stroke-width="1.5"/>
  <line x1="50" y1="40" x2="80" y2="20" stroke="#CC8400" stroke-width="1.5"/>
  <line x1="50" y1="60" x2="25" y2="55" stroke="#CC8400" stroke-width="1.5"/>
  <line x1="50" y1="60" x2="75" y2="55" stroke="#CC8400" stroke-width="1.5"/>
</svg>