<svg xmlns="http://www.w3.org/2000/svg" viewBox="0 0 100 120" width="32" height="38">
  <!-- Staghorn Sumac pinnately compound leaf with serrated leaflets -->
  <g fill="#FF6347" stroke="#8B0000" stroke-width="1">
    <!-- Central rachis -->
    <line x1="50" y1="8" x2="50" y2="110" stroke="#8B0000" stroke-width="2.5"/>
    <!-- Paired serrated leaflets -->
    <path d="M 25,15 Q 22,16 20,18 L 18,22 Q 18,26 20,29 L 23,32 Q 26,33 30,32 L 32,30 Q 34,27 34,24 Q 33,20 30,18 L 26,16 Z" />
    <path d="M 75,15 Q 78,16 80,18 L 82,22 Q 82,26 80,29 L 77,32 Q 74,33 70,32 L 68,30 Q 66,27 66,24 Q 67,20 70,18 L 74,16 Z" />
    <path d="M 22,30 Q 19,31 17,33 L 15,37 Q 15,41 17,44 L 20,47 Q 23,48 27,47 L 29,45 Q 31,42 31,39 Q 30,35 27,33 L 23,31 Z" />
    <path d="M 78,30 Q 81,31 83,33 L 85,37 Q 85,41 83,44 L 80,47 Q 77,48 73,47 L 71,45 Q 69,42 69,39 Q 70,35 73,33 L 77,31 Z" />
    <path d="M 20,48 Q 17,49 15,51 L 13,55 Q 13,59 15,62 L 18,65 Q 21,66 25,65 L 27,63 Q 29,60 29,57 Q 28,53 25,51 L 21,49 Z" />
    <path d="M 80,48 Q 83,49 85,51 L 87,55 Q 87,59 85,62 L 82,65 Q 79,66 75,65 L 73,63 Q 71,60 71,57 Q 72,53 75,51 L 79,49 Z" />
    <path d="M 18,67 Q 15,68 13,70 L 11,74 Q 11,78 13,81 L 16,84 Q 19,85 23,84 L 25,82 Q 27,79 27,76 Q 26,72 23,70 L 19,68 Z" />
    <path d="M 82,67 Q 85,68 87,70 L 89,74 Q 89,78 87,81 L 84,84 Q 81,85 77,84 L 75,82 Q 73,79 73,76 Q 74,72 77,70 L 81,68 Z" />
    <!-- Terminal leaflet (larger) -->
    <path d="M 50,88 Q 46,89 43,92 L 40,97 Q 40,102 43,106 L 47,110 Q 50,112 54,110 L 58,106 Q 60,102 60,97 L 57,92 Q 54,89 50,88 Z" />
  </g>
</svg>
